<svg id="Calque_1" data-name="Calque 1" xmlns="http://www.w3.org/2000/svg" viewBox="0 0 600 183.69"><defs><style>.cls-1{fill:#384258;}.cls-2{fill:#e93100;}.cls-3{fill:#87cccb;}.cls-4{fill:#fff;}</style></defs><title>ePoc_logo_RVB</title><path class="cls-1" d="M278.1,146.43c-29.63,0-44.93-18.05-44.93-45.91V88.75C233.17,61.08,249.26,43,275,43c20.6,0,40.22,12.36,40.22,40.22a72.58,72.58,0,0,1-2.55,18.44H255C255.34,118,262.6,126,279.28,126a73.64,73.64,0,0,0,28.64-6.27l6.48,19C300.67,144.27,288.89,146.43,278.1,146.43Zm-23-62h37.67A22.05,22.05,0,0,0,293,80.9c0-12.56-8-18.84-18.05-18.84C263,62.06,256.13,70.11,255.15,84.43Z"/><path class="cls-1" d="M333.19,11.05h43.95c28.06,0,42,15.3,42,38.85V60.3c0,23.54-13.93,39-42,39h-20.4v45.13H333.19Zm23.55,22.56V76.78h20.4c11.58,0,17.86-6.09,17.86-16.48V49.9c0-10.21-6.28-16.29-17.86-16.29Z"/><path class="cls-1" d="M516.32,100.52c0,27.86-15.89,45.91-43.55,45.91-27.86,0-43.56-18.05-43.56-45.91V88.75c0-27.67,15.5-45.72,43.56-45.72,27.86,0,43.55,18,43.55,45.72ZM472.77,63.24c-13.15,0-20.41,9.61-20.41,25.51v11.77c0,15.89,7.26,25.7,20.41,25.7s20.4-9.81,20.4-25.7V88.75C493.17,72.85,485.91,63.24,472.77,63.24Z"/><path class="cls-1" d="M550,100.52c0,16.87,5.69,25.11,19,25.11,6.48,0,14.71-1.57,24.52-5.3l6.48,19c-11.77,4.7-22,7.06-32.18,7.06-26.29,0-40.42-18.05-40.42-45.91V88.94C527.4,61.08,541.53,43,567.82,43c9.81,0,19.82,2.35,31.2,6.87l-6.48,19.42c-9.61-3.73-17.26-5.49-23.54-5.49-13.34,0-19,8.24-19,25.11Z"/><polygon class="cls-2" points="90.27 79.32 90.92 183.69 0.65 146.72 0 42.35 90.27 79.32"/><polygon class="cls-1" points="90.27 79.32 165.31 36.96 165.96 141.33 90.92 183.69 90.27 79.32"/><polygon class="cls-3" points="0 42.35 75.03 0 165.31 36.96 90.27 79.32 0 42.35"/><path class="cls-4" d="M71.79,100.21l-56-22.92c0-1.9,0-2.85,0-4.74l56,22.93C71.77,97.37,71.78,98.32,71.79,100.21Z"/><path class="cls-4" d="M71.88,115.21l-56-22.92c0-1.9,0-2.85,0-4.74l56,22.92C71.86,112.37,71.87,113.32,71.88,115.21Z"/><path class="cls-4" d="M72,130.21,16,107.29c0-1.9,0-2.85,0-4.74l56,22.92C72,127.37,72,128.32,72,130.21Z"/><polygon class="cls-4" points="43.66 133.67 16.08 122.28 16.05 117.55 43.63 128.93 43.66 133.67"/><path class="cls-1" d="M52.22,27.86c-13.58,7.66-11.34,19.33,5,26s40.66,5.89,54.24-1.77,11.33-19.33-5-26S65.79,20.19,52.22,27.86Z"/><path class="cls-4" d="M62.4,38.32l31.65-5.23-5.7,15.85Z"/><path class="cls-4" d="M144.66,125.55l-32.79,18.36c-.11-17.58-.16-26.38-.27-44l28.61-16,0,3.95L114.68,102.2c.08,14.41.13,21.62.22,36l26.68-14.94c-.05-8-.07-11.92-.12-19.86l3-1.71Z"/><path class="cls-4" d="M128.47,122.54a1,1,0,0,1-1,.07l-8-4.87c-.63-.39-.68-1.61-.12-2.74s1.52-1.73,2.15-1.35l6.89,4.19L149.12,77.1c.57-1.12,1.54-1.7,2.16-1.3s.66,1.64.09,2.76l-21.79,42.73A2.82,2.82,0,0,1,128.47,122.54Z"/></svg>