<?xml version="1.0" encoding="UTF-8" standalone="no"?>
<!-- Created with Inkscape (http://www.inkscape.org/) -->

<svg
   xmlns:dc="http://purl.org/dc/elements/1.1/"
   xmlns:cc="http://creativecommons.org/ns#"
   xmlns:rdf="http://www.w3.org/1999/02/22-rdf-syntax-ns#"
   xmlns:svg="http://www.w3.org/2000/svg"
   xmlns="http://www.w3.org/2000/svg"
   xmlns:sodipodi="http://sodipodi.sourceforge.net/DTD/sodipodi-0.dtd"
   xmlns:inkscape="http://www.inkscape.org/namespaces/inkscape"
   width="12.750134mm"
   height="11.000018mm"
   viewBox="0 0 12.750134 11.000018"
   version="1.1"
   id="svg4347"
   inkscape:version="0.92.3 (2405546, 2018-03-11)"
   sodipodi:docname="automated.svg">
  <defs
     id="defs4341" />
  <sodipodi:namedview
     id="base"
     pagecolor="#ffffff"
     bordercolor="#666666"
     borderopacity="1.0"
     inkscape:pageopacity="0.0"
     inkscape:pageshadow="2"
     inkscape:zoom="0.35"
     inkscape:cx="-701.61955"
     inkscape:cy="-287.78399"
     inkscape:document-units="mm"
     inkscape:current-layer="layer1"
     showgrid="false"
     inkscape:window-width="1920"
     inkscape:window-height="1172"
     inkscape:window-x="0"
     inkscape:window-y="0"
     inkscape:window-maximized="1" />
  <metadata
     id="metadata4344">
    <rdf:RDF>
      <cc:Work
         rdf:about="">
        <dc:format>image/svg+xml</dc:format>
        <dc:type
           rdf:resource="http://purl.org/dc/dcmitype/StillImage" />
        <dc:title></dc:title>
      </cc:Work>
    </rdf:RDF>
  </metadata>
  <g
     inkscape:label="Calque 1"
     inkscape:groupmode="layer"
     id="layer1"
     transform="translate(-117.60112,-61.690467)">
    <g
       id="g940"
       transform="matrix(0.35277777,0,0,-0.35277777,125.73234,72.690485)">
      <path
         d="m 0,0 c -0.045,0 -0.091,0.012 -0.131,0.034 l -12.817,6.974 c -0.089,0.048 -0.144,0.141 -0.144,0.24 v 13.825 c 0,0.1 0.055,0.193 0.144,0.24 l 12.817,6.975 c 0.082,0.045 0.181,0.045 0.263,0 l 12.817,-6.975 c 0.089,-0.047 0.144,-0.14 0.144,-0.24 V 7.248 c 0,-0.099 -0.055,-0.192 -0.144,-0.24 L 0.132,0.034 C 0.091,0.012 0.045,0 0,0 M -12.542,7.411 0,0.587 12.543,7.411 V 20.91 L 0,27.735 -12.542,20.91 Z"
         style="fill:#e53312;fill-opacity:1;fill-rule:nonzero;stroke:none"
         id="path942"
         inkscape:connector-curvature="0" />
    </g>
    <g
       id="g944"
       transform="matrix(0.35277777,0,0,-0.35277777,125.73251,67.685272)">
      <path
         d="m 0,0 c -0.043,0 -0.086,0.01 -0.126,0.031 l -12.817,6.61 c -0.135,0.07 -0.188,0.236 -0.118,0.37 0.069,0.136 0.237,0.188 0.37,0.118 L 0,0.582 12.445,7.002 c 0.044,0.092 0.139,0.158 0.249,0.158 h 0.123 c 0.127,0 0.238,-0.087 0.268,-0.21 C 13.114,6.827 13.057,6.7 12.944,6.641 L 0.126,0.031 C 0.086,0.01 0.043,0 0,0"
         style="fill:#e53312;fill-opacity:1;fill-rule:nonzero;stroke:none"
         id="path946"
         inkscape:connector-curvature="0" />
    </g>
    <g
       id="g948"
       transform="matrix(0.35277777,0,0,-0.35277777,125.73251,72.690308)">
      <path
         d="m 0,0 c -0.152,0 -0.275,0.123 -0.275,0.274 v 14.187 c 0,0.152 0.123,0.274 0.275,0.274 0.152,0 0.275,-0.122 0.275,-0.274 V 0.274 C 0.275,0.123 0.152,0 0,0"
         style="fill:#e53312;fill-opacity:1;fill-rule:nonzero;stroke:none"
         id="path950"
         inkscape:connector-curvature="0" />
    </g>
    <g
       id="g952"
       transform="matrix(0.35277777,0,0,-0.35277777,121.36103,69.19114)">
      <path
         d="m 0,0 c -0.245,0 -0.49,0.009 -0.745,0.027 -0.12,0.009 -0.221,0.094 -0.248,0.21 l -0.378,1.594 -0.047,0.008 c -0.21,0.034 -0.421,0.076 -0.645,0.128 L -2.109,1.978 -3.072,0.647 C -3.143,0.55 -3.269,0.511 -3.382,0.547 -3.847,0.702 -4.31,0.894 -4.757,1.117 -4.865,1.171 -4.925,1.288 -4.905,1.406 l 0.262,1.619 -0.04,0.025 c -0.179,0.11 -0.362,0.233 -0.545,0.365 l -0.039,0.028 -1.4,-0.862 c -0.102,-0.063 -0.234,-0.052 -0.324,0.026 -0.374,0.324 -0.728,0.678 -1.053,1.05 -0.079,0.091 -0.09,0.222 -0.027,0.324 l 0.865,1.397 -0.028,0.038 C -7.366,5.599 -7.49,5.782 -7.6,5.96 L -7.625,6.001 -9.247,5.739 c -0.121,-0.023 -0.236,0.041 -0.29,0.147 -0.223,0.444 -0.415,0.906 -0.572,1.371 -0.038,0.114 0.003,0.239 0.1,0.309 l 1.335,0.96 -0.011,0.048 C -8.738,8.796 -8.78,9.006 -8.813,9.216 l -0.008,0.047 -1.598,0.377 c -0.117,0.027 -0.202,0.127 -0.211,0.247 -0.018,0.255 -0.028,0.504 -0.028,0.743 0,0.24 0.01,0.489 0.028,0.744 0.009,0.119 0.094,0.22 0.211,0.247 l 1.598,0.377 0.008,0.047 c 0.033,0.209 0.075,0.42 0.128,0.643 l 0.011,0.046 -1.335,0.961 c -0.097,0.07 -0.138,0.196 -0.1,0.309 0.156,0.464 0.348,0.926 0.572,1.372 0.053,0.107 0.168,0.168 0.29,0.147 l 1.621,-0.262 0.026,0.041 c 0.109,0.176 0.233,0.36 0.366,0.543 l 0.028,0.039 -0.865,1.396 c -0.063,0.103 -0.052,0.234 0.027,0.324 0.325,0.373 0.679,0.726 1.053,1.05 0.09,0.079 0.222,0.089 0.324,0.027 l 1.4,-0.862 0.038,0.027 c 0.184,0.133 0.367,0.256 0.546,0.366 l 0.04,0.024 -0.262,1.619 c -0.02,0.118 0.04,0.236 0.148,0.289 0.447,0.223 0.91,0.415 1.375,0.571 0.113,0.036 0.239,-0.003 0.31,-0.1 l 0.963,-1.332 0.046,0.011 c 0.224,0.053 0.435,0.095 0.645,0.128 l 0.047,0.008 0.378,1.594 c 0.027,0.116 0.128,0.202 0.248,0.21 0.51,0.037 0.98,0.037 1.49,0 0.12,-0.008 0.221,-0.094 0.248,-0.21 L 1.37,19.43 1.418,19.422 c 0.21,-0.033 0.421,-0.075 0.644,-0.128 l 0.047,-0.011 0.963,1.332 c 0.071,0.097 0.196,0.136 0.31,0.1 0.466,-0.156 0.929,-0.348 1.374,-0.571 0.108,-0.053 0.168,-0.171 0.149,-0.289 L 4.642,18.236 4.683,18.212 C 4.86,18.102 5.044,17.98 5.228,17.846 l 0.038,-0.027 1.401,0.862 c 0.102,0.062 0.234,0.052 0.324,-0.027 0.373,-0.324 0.728,-0.677 1.052,-1.05 0.079,-0.09 0.09,-0.221 0.027,-0.324 L 7.205,15.884 7.233,15.846 C 7.367,15.662 7.49,15.478 7.599,15.302 l 0.026,-0.041 1.622,0.262 c 0.123,0.021 0.237,-0.041 0.291,-0.147 0.221,-0.443 0.413,-0.904 0.571,-1.371 0.038,-0.114 -0.003,-0.24 -0.1,-0.31 L 8.673,12.734 8.685,12.688 C 8.737,12.464 8.78,12.254 8.814,12.045 l 0.007,-0.047 1.598,-0.377 c 0.117,-0.027 0.203,-0.128 0.211,-0.247 0.018,-0.255 0.028,-0.504 0.028,-0.744 0,-0.239 -0.01,-0.488 -0.028,-0.743 C 10.622,9.767 10.536,9.667 10.419,9.64 L 8.821,9.263 8.814,9.216 C 8.78,9.006 8.737,8.797 8.685,8.574 L 8.673,8.526 10.009,7.566 c 0.097,-0.07 0.138,-0.195 0.1,-0.309 C 9.95,6.788 9.759,6.327 9.538,5.886 9.484,5.78 9.37,5.717 9.247,5.739 L 7.625,6.001 7.6,5.961 C 7.489,5.781 7.366,5.599 7.234,5.417 L 7.205,5.378 8.07,3.981 C 8.133,3.879 8.122,3.748 8.043,3.657 7.719,3.285 7.364,2.931 6.991,2.607 6.901,2.529 6.769,2.518 6.667,2.581 L 5.266,3.443 5.229,3.415 C 5.043,3.281 4.86,3.159 4.683,3.05 L 4.642,3.026 4.905,1.406 C 4.924,1.288 4.864,1.171 4.756,1.117 4.311,0.894 3.848,0.703 3.382,0.547 3.268,0.511 3.143,0.55 3.072,0.647 L 2.109,1.979 2.063,1.967 C 1.839,1.915 1.628,1.873 1.418,1.839 L 1.37,1.831 0.993,0.237 C 0.966,0.121 0.865,0.036 0.745,0.027 0.49,0.009 0.245,0 0,0 m -0.505,0.562 c 0.341,-0.019 0.669,-0.019 1.01,0 l 0.373,1.575 c 0.026,0.108 0.114,0.19 0.224,0.208 l 0.229,0.036 c 0.197,0.032 0.395,0.07 0.604,0.12 L 2.161,2.555 C 2.272,2.579 2.383,2.538 2.447,2.448 L 3.398,1.133 C 3.713,1.245 4.024,1.374 4.33,1.519 l -0.26,1.6 C 4.052,3.228 4.103,3.337 4.198,3.396 L 4.395,3.517 C 4.561,3.619 4.733,3.734 4.906,3.859 L 5.093,3.995 C 5.182,4.06 5.302,4.065 5.398,4.006 L 6.781,3.154 C 7.03,3.38 7.27,3.618 7.495,3.867 L 6.641,5.246 C 6.583,5.341 6.587,5.462 6.653,5.552 L 6.79,5.738 c 0.123,0.171 0.239,0.343 0.343,0.51 L 7.254,6.444 C 7.312,6.538 7.419,6.59 7.531,6.571 L 9.134,6.312 c 0.144,0.303 0.274,0.613 0.387,0.93 L 8.203,8.19 C 8.113,8.254 8.071,8.367 8.096,8.476 L 8.15,8.7 C 8.2,8.909 8.239,9.106 8.271,9.302 l 0.036,0.229 c 0.017,0.11 0.1,0.198 0.208,0.224 l 1.579,0.372 c 0.009,0.172 0.014,0.339 0.014,0.503 0,0.164 -0.005,0.333 -0.014,0.504 L 8.515,11.507 C 8.407,11.532 8.324,11.621 8.307,11.73 L 8.271,11.958 C 8.239,12.155 8.2,12.352 8.15,12.562 l -0.054,0.224 c -0.025,0.108 0.017,0.221 0.107,0.285 L 9.521,14.02 C 9.408,14.335 9.279,14.646 9.134,14.95 L 7.531,14.691 c -0.109,-0.02 -0.22,0.032 -0.279,0.127 l -0.12,0.197 C 7.03,15.18 6.914,15.351 6.789,15.524 L 6.653,15.71 c -0.066,0.09 -0.07,0.211 -0.012,0.306 l 0.854,1.379 C 7.27,17.643 7.03,17.882 6.781,18.107 L 5.398,17.255 C 5.303,17.196 5.183,17.202 5.093,17.267 l -0.188,0.136 c -0.173,0.124 -0.344,0.24 -0.511,0.343 l -0.196,0.12 C 4.103,17.924 4.052,18.034 4.07,18.143 l 0.26,1.599 C 4.024,19.887 3.713,20.016 3.398,20.128 L 2.447,18.814 C 2.383,18.724 2.271,18.679 2.162,18.708 l -0.226,0.053 c -0.21,0.049 -0.408,0.088 -0.605,0.12 l -0.229,0.036 c -0.11,0.018 -0.198,0.1 -0.224,0.208 L 0.505,20.7 c -0.341,0.019 -0.669,0.019 -1.01,0 l -0.374,-1.575 c -0.025,-0.108 -0.114,-0.19 -0.224,-0.208 l -0.228,-0.036 c -0.197,-0.032 -0.395,-0.071 -0.605,-0.12 l -0.225,-0.053 c -0.107,-0.029 -0.221,0.016 -0.286,0.106 l -0.951,1.314 C -3.712,20.016 -4.024,19.887 -4.33,19.742 l 0.259,-1.599 c 0.018,-0.109 -0.032,-0.219 -0.127,-0.277 l -0.196,-0.121 c -0.169,-0.104 -0.34,-0.219 -0.512,-0.343 l -0.187,-0.135 c -0.092,-0.065 -0.211,-0.07 -0.306,-0.012 l -1.382,0.852 C -7.03,17.882 -7.27,17.643 -7.495,17.395 l 0.854,-1.379 C -6.583,15.921 -6.587,15.8 -6.653,15.71 L -6.79,15.523 C -6.914,15.351 -7.03,15.18 -7.133,15.014 L -7.254,14.818 C -7.312,14.723 -7.422,14.67 -7.532,14.691 l -1.602,0.259 c -0.145,-0.305 -0.275,-0.616 -0.387,-0.93 l 1.317,-0.949 c 0.09,-0.064 0.132,-0.177 0.106,-0.284 l -0.053,-0.225 c -0.05,-0.211 -0.088,-0.407 -0.121,-0.604 L -8.307,11.73 c -0.018,-0.109 -0.1,-0.198 -0.209,-0.223 l -1.578,-0.373 c -0.009,-0.171 -0.014,-0.34 -0.014,-0.504 0,-0.164 0.005,-0.331 0.014,-0.503 L -8.516,9.755 C -8.407,9.729 -8.325,9.641 -8.307,9.531 L -8.271,9.302 C -8.239,9.106 -8.201,8.91 -8.151,8.7 L -8.098,8.474 C -8.072,8.367 -8.114,8.254 -8.204,8.19 L -9.521,7.242 c 0.113,-0.315 0.242,-0.626 0.387,-0.93 l 1.602,0.259 c 0.112,0.021 0.22,-0.033 0.278,-0.127 l 0.121,-0.197 c 0.104,-0.167 0.22,-0.338 0.344,-0.51 l 0.136,-0.185 c 0.066,-0.09 0.07,-0.211 0.012,-0.306 L -7.495,3.867 C -7.27,3.618 -7.03,3.38 -6.781,3.154 l 1.382,0.852 c 0.096,0.059 0.215,0.054 0.306,-0.011 L -4.905,3.859 C -4.734,3.735 -4.563,3.62 -4.394,3.517 L -4.198,3.396 C -4.103,3.337 -4.053,3.228 -4.071,3.118 L -4.33,1.519 c 0.306,-0.145 0.618,-0.274 0.932,-0.386 l 0.951,1.315 c 0.065,0.09 0.176,0.131 0.286,0.107 l 0.225,-0.054 c 0.21,-0.05 0.408,-0.088 0.605,-0.121 l 0.228,-0.035 c 0.11,-0.018 0.199,-0.1 0.224,-0.208 z"
         style="fill:#384257;fill-opacity:1;fill-rule:nonzero;stroke:none"
         id="path954"
         inkscape:connector-curvature="0" />
    </g>
    <g
       id="g956"
       transform="matrix(0.35277777,0,0,-0.35277777,122.37784,65.440796)">
      <path
         d="m 0,0 c 0,-1.588 -1.291,-2.875 -2.882,-2.875 -1.592,0 -2.883,1.287 -2.883,2.875 0,1.588 1.291,2.875 2.883,2.875 C -1.291,2.875 0,1.588 0,0"
         style="fill:#384257;fill-opacity:1;fill-rule:nonzero;stroke:none"
         id="path958"
         inkscape:connector-curvature="0" />
    </g>
  </g>
</svg>
