<?xml version="1.0" encoding="UTF-8" standalone="no"?>
<!-- Created with Inkscape (http://www.inkscape.org/) -->

<svg
   xmlns:dc="http://purl.org/dc/elements/1.1/"
   xmlns:cc="http://creativecommons.org/ns#"
   xmlns:rdf="http://www.w3.org/1999/02/22-rdf-syntax-ns#"
   xmlns:svg="http://www.w3.org/2000/svg"
   xmlns="http://www.w3.org/2000/svg"
   xmlns:sodipodi="http://sodipodi.sourceforge.net/DTD/sodipodi-0.dtd"
   xmlns:inkscape="http://www.inkscape.org/namespaces/inkscape"
   width="8.9999075mm"
   height="9.9999266mm"
   viewBox="0 0 8.9999075 9.9999266"
   version="1.1"
   id="svg2257"
   inkscape:version="0.92.3 (2405546, 2018-03-11)"
   sodipodi:docname="securite.svg">
  <defs
     id="defs2251" />
  <sodipodi:namedview
     id="base"
     pagecolor="#ffffff"
     bordercolor="#666666"
     borderopacity="1.0"
     inkscape:pageopacity="0.0"
     inkscape:pageshadow="2"
     inkscape:zoom="11.2"
     inkscape:cx="11.289099"
     inkscape:cy="2.6904431"
     inkscape:document-units="mm"
     inkscape:current-layer="layer1"
     showgrid="false"
     inkscape:window-width="1920"
     inkscape:window-height="1172"
     inkscape:window-x="0"
     inkscape:window-y="0"
     inkscape:window-maximized="1" />
  <metadata
     id="metadata2254">
    <rdf:RDF>
      <cc:Work
         rdf:about="">
        <dc:format>image/svg+xml</dc:format>
        <dc:type
           rdf:resource="http://purl.org/dc/dcmitype/StillImage" />
        <dc:title></dc:title>
      </cc:Work>
    </rdf:RDF>
  </metadata>
  <g
     inkscape:label="Calque 1"
     inkscape:groupmode="layer"
     id="layer1"
     transform="translate(-125.52386,-141.56551)">
    <g
       id="g1132"
       transform="matrix(0.35277777,0,0,-0.35277777,133.32617,147.35934)">
      <path
         d="M 0,0 C 0,0 -1.615,-7.489 -9.938,-9.532 -18.387,-7.009 -19.877,0 -19.877,0 V 10.145 L -9.938,13.992 0,10.145 Z"
         style="fill:#384257;fill-opacity:1;fill-rule:nonzero;stroke:none"
         id="path1134"
         inkscape:connector-curvature="0" />
    </g>
    <g
       id="g1136"
       transform="matrix(0.35277777,0,0,-0.35277777,129.98854,148.46209)">
      <path
         d="m 0,0 c -0.076,0 -0.152,0.028 -0.212,0.084 l -7.343,7.107 c -0.116,0.112 -0.116,0.295 0,0.41 0.118,0.111 0.306,0.111 0.423,0 L 0,0.698 12.346,12.645 c 0.117,0.112 0.305,0.112 0.422,0 0.117,-0.114 0.117,-0.297 0,-0.41 L 0.213,0.084 C 0.153,0.028 0.077,0 0,0"
         style="fill:#e53312;fill-opacity:1;fill-rule:nonzero;stroke:none"
         id="path1138"
         inkscape:connector-curvature="0" />
    </g>
    <g
       id="g1140"
       transform="matrix(0.35277777,0,0,-0.35277777,129.8094,151.56544)">
      <path
         d="m 0,0 c -0.029,0 -0.06,0.005 -0.088,0.013 l -0.296,0.088 c -9.844,2.942 -11.664,11.017 -11.735,11.359 l -0.024,0.107 c -0.003,0.019 -0.005,0.038 -0.005,0.059 v 11.833 c 0,0.118 0.074,0.225 0.187,0.268 l 11.879,4.599 c 0.071,0.027 0.151,0.027 0.223,0 l 11.88,-4.599 c 0.114,-0.043 0.187,-0.15 0.187,-0.268 V 22.73 c 0,-0.16 -0.134,-0.289 -0.299,-0.289 -0.165,0 -0.298,0.129 -0.298,0.289 v 0.533 l -11.582,4.483 -11.581,-4.483 0.018,-11.686 c 0.068,-0.329 1.817,-8.081 11.327,-10.923 l 0.216,-0.065 0.22,0.054 c 9.395,2.308 11.289,10.581 11.365,10.933 l 0.017,0.077 v 6.201 c 0,0.16 0.133,0.29 0.298,0.29 0.165,0 0.299,-0.13 0.299,-0.29 v -6.23 c 0,-0.02 -0.002,-0.041 -0.006,-0.06 L 12.179,11.457 C 12.1,11.092 10.129,2.477 0.374,0.083 L 0.073,0.009 C 0.05,0.003 0.025,0 0,0"
         style="fill:#e53312;fill-opacity:1;fill-rule:nonzero;stroke:none"
         id="path1142"
         inkscape:connector-curvature="0" />
    </g>
  </g>
</svg>
