<?xml version="1.0" encoding="UTF-8" standalone="no"?>
<!-- Created with Inkscape (http://www.inkscape.org/) -->

<svg
   xmlns:dc="http://purl.org/dc/elements/1.1/"
   xmlns:cc="http://creativecommons.org/ns#"
   xmlns:rdf="http://www.w3.org/1999/02/22-rdf-syntax-ns#"
   xmlns:svg="http://www.w3.org/2000/svg"
   xmlns="http://www.w3.org/2000/svg"
   xmlns:sodipodi="http://sodipodi.sourceforge.net/DTD/sodipodi-0.dtd"
   xmlns:inkscape="http://www.inkscape.org/namespaces/inkscape"
   width="7.4993501mm"
   height="10.999753mm"
   viewBox="0 0 7.4993501 10.999753"
   version="1.1"
   id="svg3648"
   inkscape:version="0.92.3 (2405546, 2018-03-11)"
   sodipodi:docname="science.svg">
  <defs
     id="defs3642" />
  <sodipodi:namedview
     id="base"
     pagecolor="#ffffff"
     bordercolor="#666666"
     borderopacity="1.0"
     inkscape:pageopacity="0.0"
     inkscape:pageshadow="2"
     inkscape:zoom="2.8"
     inkscape:cx="-9.4253007"
     inkscape:cy="-18.979015"
     inkscape:document-units="mm"
     inkscape:current-layer="layer1"
     showgrid="false"
     inkscape:window-width="1920"
     inkscape:window-height="1172"
     inkscape:window-x="0"
     inkscape:window-y="0"
     inkscape:window-maximized="1" />
  <metadata
     id="metadata3645">
    <rdf:RDF>
      <cc:Work
         rdf:about="">
        <dc:format>image/svg+xml</dc:format>
        <dc:type
           rdf:resource="http://purl.org/dc/dcmitype/StillImage" />
        <dc:title></dc:title>
      </cc:Work>
    </rdf:RDF>
  </metadata>
  <g
     inkscape:label="Calque 1"
     inkscape:groupmode="layer"
     id="layer1"
     transform="translate(-64.286039,-98.732267)">
    <g
       id="g1204"
       transform="matrix(0.35277777,0,0,-0.35277777,69.584798,108.14279)">
      <path
         d="m 0,0 h -8.958 c -0.148,0 -0.269,0.12 -0.269,0.267 0,0.148 0.121,0.267 0.269,0.267 H 0 C 0.148,0.534 0.27,0.415 0.27,0.267 0.27,0.12 0.148,0 0,0"
         style="fill:#384257;fill-opacity:1;fill-rule:nonzero;stroke:none"
         id="path1206"
         inkscape:connector-curvature="0" />
    </g>
    <g
       id="g1208"
       transform="matrix(0.35277777,0,0,-0.35277777,69.584798,108.67266)">
      <path
         d="m 0,0 h -8.958 c -0.148,0 -0.269,0.12 -0.269,0.268 0,0.147 0.121,0.266 0.269,0.266 H 0 C 0.148,0.534 0.27,0.415 0.27,0.268 0.27,0.12 0.148,0 0,0"
         style="fill:#384257;fill-opacity:1;fill-rule:nonzero;stroke:none"
         id="path1210"
         inkscape:connector-curvature="0" />
    </g>
    <g
       id="g1212"
       transform="matrix(0.35277777,0,0,-0.35277777,69.584798,109.20218)">
      <path
         d="m 0,0 h -8.958 c -0.148,0 -0.269,0.12 -0.269,0.267 0,0.148 0.121,0.266 0.269,0.266 H 0 C 0.148,0.533 0.27,0.415 0.27,0.267 0.27,0.12 0.148,0 0,0"
         style="fill:#384257;fill-opacity:1;fill-rule:nonzero;stroke:none"
         id="path1214"
         inkscape:connector-curvature="0" />
    </g>
    <g
       id="g1216"
       transform="matrix(0.35277777,0,0,-0.35277777,68.947115,109.73202)">
      <path
         d="m 0,0 h -5.344 c -0.147,0 -0.268,0.119 -0.268,0.267 0,0.148 0.121,0.266 0.268,0.266 H 0 C 0.148,0.533 0.27,0.415 0.27,0.267 0.27,0.119 0.148,0 0,0"
         style="fill:#384257;fill-opacity:1;fill-rule:nonzero;stroke:none"
         id="path1218"
         inkscape:connector-curvature="0" />
    </g>
    <g
       id="g1220"
       transform="matrix(0.35277777,0,0,-0.35277777,68.347992,106.82262)">
      <path
         d="m 0,0 h -1.333 c -2.321,0 -4.21,1.877 -4.21,4.185 v 0.576 c -2.603,1.612 -4.152,4.38 -4.152,7.431 0,4.828 3.952,8.756 8.81,8.756 4.858,0 8.81,-3.928 8.81,-8.756 0,-2.838 -1.386,-5.497 -3.713,-7.14 V 4.185 C 4.212,1.877 2.323,0 0,0 m -0.885,20.413 c -4.562,0 -8.273,-3.687 -8.273,-8.221 0,-2.914 1.504,-5.55 4.022,-7.052 l 0.13,-0.078 V 4.185 c 0,-2.013 1.649,-3.651 3.673,-3.651 H 0 c 2.026,0 3.674,1.638 3.674,3.651 v 1.146 l 0.116,0.08 c 2.253,1.536 3.597,4.072 3.597,6.781 0,4.534 -3.711,8.221 -8.272,8.221"
         style="fill:#e53312;fill-opacity:1;fill-rule:nonzero;stroke:none"
         id="path1222"
         inkscape:connector-curvature="0" />
    </g>
    <g
       id="g1224"
       transform="matrix(0.35277777,0,0,-0.35277777,68.004529,108.15898)">
      <path
         d="m 0,0 c -0.147,0 -0.269,0.12 -0.269,0.267 v 16.176 c 0,0.148 0.122,0.268 0.269,0.268 0.148,0 0.27,-0.12 0.27,-0.268 V 0.267 C 0.27,0.12 0.148,0 0,0"
         style="fill:#384257;fill-opacity:1;fill-rule:nonzero;stroke:none"
         id="path1226"
         inkscape:connector-curvature="0" />
    </g>
    <g
       id="g1228"
       transform="matrix(0.35277777,0,0,-0.35277777,68.005198,102.36433)">
      <path
         d="m 0,0 c 0,-0.997 -0.813,-1.806 -1.817,-1.806 -1.003,0 -1.816,0.809 -1.816,1.806 0,0.997 0.813,1.805 1.816,1.805 C -0.813,1.805 0,0.997 0,0"
         style="fill:#e53312;fill-opacity:1;fill-rule:nonzero;stroke:none"
         id="path1230"
         inkscape:connector-curvature="0" />
    </g>
    <g
       id="g1232"
       transform="matrix(0.35277777,0,0,-0.35277777,69.271637,102.36951)">
      <path
         d="m 0,0 c 0,-0.997 -0.813,-1.806 -1.817,-1.806 -1.003,0 -1.817,0.809 -1.817,1.806 0,0.997 0.814,1.805 1.817,1.805 C -0.813,1.805 0,0.997 0,0"
         style="fill:#e53312;fill-opacity:1;fill-rule:nonzero;stroke:none"
         id="path1234"
         inkscape:connector-curvature="0" />
    </g>
    <g
       id="g1236"
       transform="matrix(0.35277777,0,0,-0.35277777,68.807592,107.4741)">
      <path
         d="m 0,0 c -0.123,0 -0.232,0.083 -0.261,0.206 -0.035,0.144 0.054,0.288 0.2,0.32 2.279,0.534 3.87,2.532 3.87,4.858 v 0.633 c 0,0.083 0.039,0.162 0.105,0.212 2.499,1.886 3.99,4.872 3.99,7.988 0,5.53 -4.527,10.029 -10.092,10.029 -5.565,0 -10.092,-4.499 -10.092,-10.029 0,-3.339 1.669,-6.451 4.462,-8.323 0.073,-0.049 0.119,-0.133 0.119,-0.221 V 5.384 c 0,-2.246 1.522,-4.227 3.702,-4.816 0.144,-0.039 0.228,-0.184 0.19,-0.328 -0.039,-0.141 -0.184,-0.226 -0.33,-0.187 -2.416,0.652 -4.1,2.843 -4.1,5.331 v 0.147 c -2.871,1.981 -4.58,5.216 -4.58,8.686 0,5.825 4.767,10.563 10.629,10.563 5.862,0 10.629,-4.738 10.629,-10.563 0,-3.238 -1.528,-6.341 -4.094,-8.332 V 5.384 C 4.347,2.808 2.584,0.597 0.062,0.008 0.041,0.002 0.021,0 0,0"
         style="fill:#384257;fill-opacity:1;fill-rule:nonzero;stroke:none"
         id="path1238"
         inkscape:connector-curvature="0" />
    </g>
  </g>
</svg>
